<svg preserveAspectRatio="none" width="100%" height="100%" overflow="visible" style="display: block;" viewBox="0 0 24 24" fill="none" xmlns="http://www.w3.org/2000/svg">
<g id="SVG">
<path id="Vector" d="M6 22C4.89617 22 4 21.1038 4 20V4C4 2.89617 4.89617 2 6 2H14C14.6394 1.99896 15.2527 2.25309 15.704 2.706L19.292 6.294C19.7461 6.74544 20.001 7.35965 20 8V20C20 21.1038 19.1038 22 18 22H6" stroke="var(--stroke-0, #2563EB)" stroke-width="2" stroke-linecap="round" stroke-linejoin="round"/>
<path id="Vector_2" d="M14 2V7C14 7.55192 14.4481 8 15 8H20" stroke="var(--stroke-0, #2563EB)" stroke-width="2" stroke-linecap="round" stroke-linejoin="round"/>
<path id="Vector_3" d="M9 14.5C9 15.8798 10.1202 17 11.5 17C12.8798 17 14 15.8798 14 14.5C14 13.1202 12.8798 12 11.5 12C10.1202 12 9 13.1202 9 14.5V14.5" stroke="var(--stroke-0, #2563EB)" stroke-width="2" stroke-linecap="round" stroke-linejoin="round"/>
<path id="Vector_4" d="M13.3 16.3L15 18" stroke="var(--stroke-0, #2563EB)" stroke-width="2" stroke-linecap="round" stroke-linejoin="round"/>
</g>
</svg>
